%TF.GenerationSoftware,KiCad,Pcbnew,7.0.6*%
%TF.CreationDate,2023-08-02T13:53:42+10:00*%
%TF.ProjectId,c64 rom,63363420-726f-46d2-9e6b-696361645f70,rev?*%
%TF.SameCoordinates,Original*%
%TF.FileFunction,Soldermask,Bot*%
%TF.FilePolarity,Negative*%
%FSLAX46Y46*%
G04 Gerber Fmt 4.6, Leading zero omitted, Abs format (unit mm)*
G04 Created by KiCad (PCBNEW 7.0.6) date 2023-08-02 13:53:42*
%MOMM*%
%LPD*%
G01*
G04 APERTURE LIST*
%ADD10C,1.400000*%
%ADD11R,1.600000X1.600000*%
%ADD12O,1.600000X1.600000*%
G04 APERTURE END LIST*
D10*
%TO.C,A14*%
X88338700Y-37243000D03*
%TD*%
%TO.C,A13*%
X85291600Y-37233900D03*
%TD*%
%TO.C,GND1*%
X80772700Y-37233900D03*
%TD*%
D11*
%TO.C,S1*%
X72419600Y-46577800D03*
D12*
X72419600Y-49117800D03*
X72419600Y-51657800D03*
X72419600Y-54197800D03*
X72419600Y-56737800D03*
X72419600Y-59277800D03*
X72419600Y-61817800D03*
X72419600Y-64357800D03*
X72419600Y-66897800D03*
X72419600Y-69437800D03*
X72419600Y-71977800D03*
X72419600Y-74517800D03*
X87659600Y-74517800D03*
X87659600Y-71977800D03*
X87659600Y-69437800D03*
X87659600Y-66897800D03*
X87659600Y-64357800D03*
X87659600Y-61817800D03*
X87659600Y-59277800D03*
X87659600Y-56737800D03*
X87659600Y-54197800D03*
X87659600Y-51657800D03*
X87659600Y-49117800D03*
X87659600Y-46577800D03*
%TD*%
D10*
%TO.C,VCC1*%
X77741300Y-37233900D03*
%TD*%
D11*
%TO.C,U1*%
X75415900Y-41496900D03*
D12*
X75415900Y-44036900D03*
X75415900Y-46576900D03*
X75415900Y-49116900D03*
X75415900Y-51656900D03*
X75415900Y-54196900D03*
X75415900Y-56736900D03*
X75415900Y-59276900D03*
X75415900Y-61816900D03*
X75415900Y-64356900D03*
X75415900Y-66896900D03*
X75415900Y-69436900D03*
X75415900Y-71976900D03*
X75415900Y-74516900D03*
X90655900Y-74516900D03*
X90655900Y-71976900D03*
X90655900Y-69436900D03*
X90655900Y-66896900D03*
X90655900Y-64356900D03*
X90655900Y-61816900D03*
X90655900Y-59276900D03*
X90655900Y-56736900D03*
X90655900Y-54196900D03*
X90655900Y-51656900D03*
X90655900Y-49116900D03*
X90655900Y-46576900D03*
X90655900Y-44036900D03*
X90655900Y-41496900D03*
%TD*%
M02*
