M48
; DRILL file {KiCad 7.0.6} date Wed Aug  2 13:53:48 2023
; FORMAT={-:-/ absolute / metric / decimal}
; #@! TF.CreationDate,2023-08-02T13:53:48+10:00
; #@! TF.GenerationSoftware,Kicad,Pcbnew,7.0.6
; #@! TF.FileFunction,Plated,1,2,PTH
FMAT,2
METRIC
; #@! TA.AperFunction,Plated,PTH,ComponentDrill
T1C0.700
; #@! TA.AperFunction,Plated,PTH,ComponentDrill
T2C0.800
%
G90
G05
T1
X77.741Y-37.234
X80.773Y-37.234
X85.292Y-37.234
X88.339Y-37.243
T2
X72.42Y-46.578
X72.42Y-49.118
X72.42Y-51.658
X72.42Y-54.198
X72.42Y-56.738
X72.42Y-59.278
X72.42Y-61.818
X72.42Y-64.358
X72.42Y-66.898
X72.42Y-69.438
X72.42Y-71.978
X72.42Y-74.518
X75.416Y-41.497
X75.416Y-44.037
X75.416Y-46.577
X75.416Y-49.117
X75.416Y-51.657
X75.416Y-54.197
X75.416Y-56.737
X75.416Y-59.277
X75.416Y-61.817
X75.416Y-64.357
X75.416Y-66.897
X75.416Y-69.437
X75.416Y-71.977
X75.416Y-74.517
X87.66Y-46.578
X87.66Y-49.118
X87.66Y-51.658
X87.66Y-54.198
X87.66Y-56.738
X87.66Y-59.278
X87.66Y-61.818
X87.66Y-64.358
X87.66Y-66.898
X87.66Y-69.438
X87.66Y-71.978
X87.66Y-74.518
X90.656Y-41.497
X90.656Y-44.037
X90.656Y-46.577
X90.656Y-49.117
X90.656Y-51.657
X90.656Y-54.197
X90.656Y-56.737
X90.656Y-59.277
X90.656Y-61.817
X90.656Y-64.357
X90.656Y-66.897
X90.656Y-69.437
X90.656Y-71.977
X90.656Y-74.517
T0
M30
